<?xml version="1.0" encoding="UTF-8"?>
<svg xmlns="http://www.w3.org/2000/svg" xmlns:xlink="http://www.w3.org/1999/xlink" width="16px" height="16px" viewBox="0 0 16 16" version="1.1">
<g id="surface1">
<path style=" stroke:none;fill-rule:evenodd;fill:rgb(44.705883%,66.274512%,89.019608%);fill-opacity:1;" d="M 2.667969 2 L 6.667969 2 L 6.667969 4 L 2.667969 4 Z M 6 5.332031 L 10 5.332031 L 10 7.332031 L 6 7.332031 Z M 6 8.667969 L 10 8.667969 L 10 10.667969 L 6 10.667969 Z M 9.332031 12 L 13.332031 12 L 13.332031 14 L 9.332031 14 Z M 5 4.667969 L 5 5.667969 L 5.332031 5.667969 L 5.332031 6.667969 L 4 6.667969 L 4 4.667969 Z M 8.332031 11.332031 L 8.332031 12.332031 L 8.667969 12.332031 L 8.667969 13.332031 L 7.332031 13.332031 L 7.332031 11.332031 Z M 5 7.332031 L 5 9 L 5.332031 9 L 5.332031 10 L 4 10 L 4 7.332031 Z M 5 7.332031 "/>
</g>
</svg>
